<svg xmlns="http://www.w3.org/2000/svg" width="18.67" height="14.936" viewBox="0 0 18.67 14.936">
  <path id="Icon_awesome-project-diagram" data-name="Icon awesome-project-diagram" d="M11.2,9.335H7.468a.934.934,0,0,0-.934.934V14a.934.934,0,0,0,.934.934H11.2A.934.934,0,0,0,12.136,14V10.269A.934.934,0,0,0,11.2,9.335ZM5.6.934A.934.934,0,0,0,4.668,0H.934A.934.934,0,0,0,0,.934V4.668A.934.934,0,0,0,.934,5.6H3.726L5.86,9.336A1.861,1.861,0,0,1,7.468,8.4h.008L5.6,5.12V3.734h6.535V1.867H5.6ZM17.737,0H14a.934.934,0,0,0-.934.934V4.668A.934.934,0,0,0,14,5.6h3.734a.934.934,0,0,0,.934-.934V.934A.934.934,0,0,0,17.737,0Z" fill="#5fa7dd"/>
</svg>
