<svg xmlns="http://www.w3.org/2000/svg" width="15.685" height="15.685" viewBox="0 0 15.685 15.685">
  <g id="Icon_ionic-md-cube" data-name="Icon ionic-md-cube" transform="translate(-2.25 -2.25)">
    <path id="Path_8" data-name="Path 8" d="M25.963,11.82a.439.439,0,0,0-.179.035l-6.218,3.225h0a.883.883,0,0,0-.438.749v6.509a.422.422,0,0,0,.445.4.479.479,0,0,0,.214-.049.076.076,0,0,0,.018-.011l6.116-3.246.011,0a.889.889,0,0,0,.48-.774V12.222A.424.424,0,0,0,25.963,11.82Z" transform="translate(-8.472 -4.805)" fill="#5fa7dd"/>
    <path id="Path_9" data-name="Path 9" d="M17.656,5.278l-6.362-2.86a2.01,2.01,0,0,0-.581-.168,1.975,1.975,0,0,0-.578.168L3.768,5.278s-.28.116-.28.333.291.4.291.4l6.495,3.424a1.1,1.1,0,0,0,.886,0l6.491-3.428a.507.507,0,0,0,.263-.4C17.916,5.383,17.656,5.278,17.656,5.278Z" transform="translate(-0.621)" fill="#5fa7dd"/>
    <path id="Path_10" data-name="Path 10" d="M9.095,15.076,2.873,11.848a.491.491,0,0,0-.179-.035.424.424,0,0,0-.445.4V18.65a.889.889,0,0,0,.48.774l.007,0,6.116,3.246a.463.463,0,0,0,.231.06.427.427,0,0,0,.445-.4V15.825A.875.875,0,0,0,9.095,15.076Z" transform="translate(0 -4.801)" fill="#5fa7dd"/>
  </g>
</svg>
